<?xml version="1.0" encoding="utf-8" standalone="no"?>
<!DOCTYPE svg PUBLIC "-//W3C//DTD SVG 1.1//EN"
  "http://www.w3.org/Graphics/SVG/1.1/DTD/svg11.dtd">
<!-- Created with matplotlib (http://matplotlib.org/) -->
<svg height="355.324219pt" version="1.1" viewBox="0 0 430.145938 355.324219" width="430.145938pt" xmlns="http://www.w3.org/2000/svg" xmlns:xlink="http://www.w3.org/1999/xlink">
 <defs>
  <style type="text/css">
*{stroke-linecap:butt;stroke-linejoin:round;}
  </style>
 </defs>
 <g id="figure_1">
  <g id="patch_1">
   <path d="M 0 355.324219 
L 430.145938 355.324219 
L 430.145938 0 
L 0 0 
z
" style="fill:#ffffff;"/>
  </g>
  <g id="axes_1">
   <g id="patch_2">
    <path d="M 28.845937 111.904948 
L 202.445937 111.904948 
L 202.445937 21.558281 
L 28.845937 21.558281 
z
" style="fill:#ffffff;"/>
   </g>
   <g id="patch_3">
    <path clip-path="url(#p604e0e35fe)" d="M 28.845937 111.904948 
L 28.845937 111.904948 
L 30.581937 111.904948 
L 30.581937 111.904948 
L 32.317937 111.904948 
L 32.317937 25.860503 
L 34.053937 25.860503 
L 34.053937 111.904948 
L 35.789938 111.904948 
L 35.789938 68.882726 
L 37.525937 68.882726 
L 37.525937 25.860503 
L 39.261938 25.860503 
L 39.261938 111.904948 
L 40.997937 111.904948 
L 40.997937 111.904948 
L 42.733937 111.904948 
L 42.733937 111.904948 
L 44.469938 111.904948 
L 44.469938 111.904948 
L 46.205937 111.904948 
L 46.205937 111.904948 
L 47.941937 111.904948 
L 47.941937 68.882726 
L 49.677937 68.882726 
L 49.677937 68.882726 
L 51.413938 68.882726 
L 51.413938 111.904948 
L 53.149937 111.904948 
L 53.149937 111.904948 
L 54.885937 111.904948 
L 54.885937 111.904948 
L 56.621938 111.904948 
L 56.621938 111.904948 
L 58.357937 111.904948 
L 58.357937 111.904948 
L 60.093937 111.904948 
L 60.093937 25.860503 
L 61.829937 25.860503 
L 61.829937 111.904948 
L 63.565937 111.904948 
L 63.565937 111.904948 
L 65.301938 111.904948 
L 65.301938 25.860503 
L 67.037937 25.860503 
L 67.037937 111.904948 
L 68.773937 111.904948 
L 68.773937 111.904948 
L 70.509938 111.904948 
L 70.509938 111.904948 
L 72.245937 111.904948 
L 72.245937 68.882726 
L 73.981938 68.882726 
L 73.981938 111.904948 
L 75.717938 111.904948 
L 75.717938 111.904948 
L 77.453937 111.904948 
L 77.453937 111.904948 
L 79.189937 111.904948 
L 79.189937 111.904948 
L 80.925938 111.904948 
L 80.925938 68.882726 
L 82.661937 68.882726 
L 82.661937 111.904948 
L 84.397937 111.904948 
L 84.397937 111.904948 
L 86.133938 111.904948 
L 86.133938 111.904948 
L 87.869937 111.904948 
L 87.869937 111.904948 
L 89.605937 111.904948 
L 89.605937 111.904948 
L 91.341938 111.904948 
L 91.341938 111.904948 
L 93.077937 111.904948 
L 93.077937 111.904948 
L 94.813938 111.904948 
L 94.813938 111.904948 
L 96.549937 111.904948 
L 96.549937 111.904948 
L 98.285937 111.904948 
L 98.285937 111.904948 
L 100.021938 111.904948 
L 100.021938 111.904948 
L 101.757937 111.904948 
L 101.757937 25.860503 
L 103.493937 25.860503 
L 103.493937 68.882726 
L 105.229938 68.882726 
L 105.229938 111.904948 
L 106.965937 111.904948 
L 106.965937 68.882726 
L 108.701937 68.882726 
L 108.701937 111.904948 
L 110.437938 111.904948 
L 110.437938 68.882726 
L 112.173937 68.882726 
L 112.173937 111.904948 
L 113.909937 111.904948 
L 113.909937 111.904948 
L 115.645938 111.904948 
L 115.645938 111.904948 
L 117.381937 111.904948 
L 117.381937 111.904948 
L 119.117938 111.904948 
L 119.117938 111.904948 
L 120.853938 111.904948 
L 120.853938 111.904948 
L 122.589937 111.904948 
L 122.589937 111.904948 
L 124.325938 111.904948 
L 124.325938 111.904948 
L 126.061937 111.904948 
L 126.061937 111.904948 
L 127.797937 111.904948 
L 127.797937 111.904948 
L 129.533938 111.904948 
L 129.533938 111.904948 
L 131.269937 111.904948 
L 131.269937 111.904948 
L 133.005937 111.904948 
L 133.005937 111.904948 
L 134.741938 111.904948 
L 134.741938 111.904948 
L 136.477937 111.904948 
L 136.477937 111.904948 
L 138.213937 111.904948 
L 138.213937 111.904948 
L 139.949938 111.904948 
L 139.949938 111.904948 
L 141.685937 111.904948 
L 141.685937 111.904948 
L 143.421937 111.904948 
L 143.421937 68.882726 
L 145.157938 68.882726 
L 145.157938 111.904948 
L 146.893937 111.904948 
L 146.893937 68.882726 
L 148.629938 68.882726 
L 148.629938 111.904948 
L 150.365938 111.904948 
L 150.365938 68.882726 
L 152.101937 68.882726 
L 152.101937 111.904948 
L 153.837938 111.904948 
L 153.837938 111.904948 
L 155.573937 111.904948 
L 155.573937 25.860503 
L 157.309937 25.860503 
L 157.309937 111.904948 
L 159.045937 111.904948 
L 159.045937 68.882726 
L 160.781937 68.882726 
L 160.781937 111.904948 
L 162.517937 111.904948 
L 162.517937 111.904948 
L 164.253937 111.904948 
L 164.253937 25.860503 
L 165.989937 25.860503 
L 165.989937 111.904948 
L 167.725937 111.904948 
L 167.725937 111.904948 
L 169.461937 111.904948 
L 169.461937 111.904948 
L 171.197937 111.904948 
L 171.197937 111.904948 
L 172.933937 111.904948 
L 172.933937 111.904948 
L 174.669938 111.904948 
L 174.669938 68.882726 
L 176.405937 68.882726 
L 176.405937 111.904948 
L 178.141937 111.904948 
L 178.141937 111.904948 
L 179.877938 111.904948 
L 179.877938 111.904948 
L 181.613937 111.904948 
L 181.613937 68.882726 
L 183.349937 68.882726 
L 183.349937 111.904948 
L 185.085938 111.904948 
L 185.085938 68.882726 
L 186.821937 68.882726 
L 186.821937 111.904948 
L 188.557937 111.904948 
L 188.557937 111.904948 
L 190.293937 111.904948 
L 190.293937 111.904948 
L 192.029937 111.904948 
L 192.029937 111.904948 
L 193.765937 111.904948 
L 193.765937 111.904948 
L 195.501937 111.904948 
L 195.501937 111.904948 
L 197.237937 111.904948 
L 197.237937 111.904948 
L 198.973937 111.904948 
L 198.973937 111.904948 
L 200.709937 111.904948 
L 200.709937 68.882726 
L 202.445937 68.882726 
L 202.445937 111.904948 
L 200.709937 111.904948 
L 200.709937 111.904948 
L 198.973937 111.904948 
L 198.973937 111.904948 
L 197.237937 111.904948 
L 197.237937 111.904948 
L 195.501937 111.904948 
L 195.501937 111.904948 
L 193.765937 111.904948 
L 193.765937 111.904948 
L 192.029937 111.904948 
L 192.029937 111.904948 
L 190.293937 111.904948 
L 190.293937 111.904948 
L 188.557937 111.904948 
L 188.557937 111.904948 
L 186.821937 111.904948 
L 186.821937 111.904948 
L 185.085938 111.904948 
L 185.085938 111.904948 
L 183.349937 111.904948 
L 183.349937 111.904948 
L 181.613937 111.904948 
L 181.613937 111.904948 
L 179.877938 111.904948 
L 179.877938 111.904948 
L 178.141937 111.904948 
L 178.141937 111.904948 
L 176.405937 111.904948 
L 176.405937 111.904948 
L 174.669938 111.904948 
L 174.669938 111.904948 
L 172.933937 111.904948 
L 172.933937 111.904948 
L 171.197937 111.904948 
L 171.197937 111.904948 
L 169.461937 111.904948 
L 169.461937 111.904948 
L 167.725937 111.904948 
L 167.725937 111.904948 
L 165.989937 111.904948 
L 165.989937 111.904948 
L 164.253937 111.904948 
L 164.253937 111.904948 
L 162.517937 111.904948 
L 162.517937 111.904948 
L 160.781937 111.904948 
L 160.781937 111.904948 
L 159.045937 111.904948 
L 159.045937 111.904948 
L 157.309937 111.904948 
L 157.309937 111.904948 
L 155.573937 111.904948 
L 155.573937 111.904948 
L 153.837938 111.904948 
L 153.837938 111.904948 
L 152.101937 111.904948 
L 152.101937 111.904948 
L 150.365938 111.904948 
L 150.365938 111.904948 
L 148.629938 111.904948 
L 148.629938 111.904948 
L 146.893937 111.904948 
L 146.893937 111.904948 
L 145.157938 111.904948 
L 145.157938 111.904948 
L 143.421937 111.904948 
L 143.421937 111.904948 
L 141.685937 111.904948 
L 141.685937 111.904948 
L 139.949938 111.904948 
L 139.949938 111.904948 
L 138.213937 111.904948 
L 138.213937 111.904948 
L 136.477937 111.904948 
L 136.477937 111.904948 
L 134.741938 111.904948 
L 134.741938 111.904948 
L 133.005937 111.904948 
L 133.005937 111.904948 
L 131.269937 111.904948 
L 131.269937 111.904948 
L 129.533938 111.904948 
L 129.533938 111.904948 
L 127.797937 111.904948 
L 127.797937 111.904948 
L 126.061937 111.904948 
L 126.061937 111.904948 
L 124.325938 111.904948 
L 124.325938 111.904948 
L 122.589937 111.904948 
L 122.589937 111.904948 
L 120.853938 111.904948 
L 120.853938 111.904948 
L 119.117938 111.904948 
L 119.117938 111.904948 
L 117.381937 111.904948 
L 117.381937 111.904948 
L 115.645938 111.904948 
L 115.645938 111.904948 
L 113.909937 111.904948 
L 113.909937 111.904948 
L 112.173937 111.904948 
L 112.173937 111.904948 
L 110.437938 111.904948 
L 110.437938 111.904948 
L 108.701937 111.904948 
L 108.701937 111.904948 
L 106.965937 111.904948 
L 106.965937 111.904948 
L 105.229938 111.904948 
L 105.229938 111.904948 
L 103.493937 111.904948 
L 103.493937 111.904948 
L 101.757937 111.904948 
L 101.757937 111.904948 
L 100.021938 111.904948 
L 100.021938 111.904948 
L 98.285937 111.904948 
L 98.285937 111.904948 
L 96.549937 111.904948 
L 96.549937 111.904948 
L 94.813938 111.904948 
L 94.813938 111.904948 
L 93.077937 111.904948 
L 93.077937 111.904948 
L 91.341938 111.904948 
L 91.341938 111.904948 
L 89.605937 111.904948 
L 89.605937 111.904948 
L 87.869937 111.904948 
L 87.869937 111.904948 
L 86.133938 111.904948 
L 86.133938 111.904948 
L 84.397937 111.904948 
L 84.397937 111.904948 
L 82.661937 111.904948 
L 82.661937 111.904948 
L 80.925938 111.904948 
L 80.925938 111.904948 
L 79.189937 111.904948 
L 79.189937 111.904948 
L 77.453937 111.904948 
L 77.453937 111.904948 
L 75.717938 111.904948 
L 75.717938 111.904948 
L 73.981938 111.904948 
L 73.981938 111.904948 
L 72.245937 111.904948 
L 72.245937 111.904948 
L 70.509938 111.904948 
L 70.509938 111.904948 
L 68.773937 111.904948 
L 68.773937 111.904948 
L 67.037937 111.904948 
L 67.037937 111.904948 
L 65.301938 111.904948 
L 65.301938 111.904948 
L 63.565937 111.904948 
L 63.565937 111.904948 
L 61.829937 111.904948 
L 61.829937 111.904948 
L 60.093937 111.904948 
L 60.093937 111.904948 
L 58.357937 111.904948 
L 58.357937 111.904948 
L 56.621938 111.904948 
L 56.621938 111.904948 
L 54.885937 111.904948 
L 54.885937 111.904948 
L 53.149937 111.904948 
L 53.149937 111.904948 
L 51.413938 111.904948 
L 51.413938 111.904948 
L 49.677937 111.904948 
L 49.677937 111.904948 
L 47.941937 111.904948 
L 47.941937 111.904948 
L 46.205937 111.904948 
L 46.205937 111.904948 
L 44.469938 111.904948 
L 44.469938 111.904948 
L 42.733937 111.904948 
L 42.733937 111.904948 
L 40.997937 111.904948 
L 40.997937 111.904948 
L 39.261938 111.904948 
L 39.261938 111.904948 
L 37.525937 111.904948 
L 37.525937 111.904948 
L 35.789938 111.904948 
L 35.789938 111.904948 
L 34.053937 111.904948 
L 34.053937 111.904948 
L 32.317937 111.904948 
L 32.317937 111.904948 
L 30.581937 111.904948 
L 30.581937 111.904948 
z
" style="fill:#1f77b4;"/>
   </g>
   <g id="matplotlib.axis_1">
    <g id="xtick_1">
     <g id="line2d_1">
      <defs>
       <path d="M 0 0 
L 0 3.5 
" id="m30da260fa8" style="stroke:#000000;stroke-width:0.8;"/>
      </defs>
      <g>
       <use style="stroke:#000000;stroke-width:0.8;" x="28.845937" xlink:href="#m30da260fa8" y="111.904948"/>
      </g>
     </g>
    </g>
    <g id="xtick_2">
     <g id="line2d_2">
      <g>
       <use style="stroke:#000000;stroke-width:0.8;" x="63.565937" xlink:href="#m30da260fa8" y="111.904948"/>
      </g>
     </g>
    </g>
    <g id="xtick_3">
     <g id="line2d_3">
      <g>
       <use style="stroke:#000000;stroke-width:0.8;" x="98.285937" xlink:href="#m30da260fa8" y="111.904948"/>
      </g>
     </g>
    </g>
    <g id="xtick_4">
     <g id="line2d_4">
      <g>
       <use style="stroke:#000000;stroke-width:0.8;" x="133.005937" xlink:href="#m30da260fa8" y="111.904948"/>
      </g>
     </g>
    </g>
    <g id="xtick_5">
     <g id="line2d_5">
      <g>
       <use style="stroke:#000000;stroke-width:0.8;" x="167.725937" xlink:href="#m30da260fa8" y="111.904948"/>
      </g>
     </g>
    </g>
    <g id="xtick_6">
     <g id="line2d_6">
      <g>
       <use style="stroke:#000000;stroke-width:0.8;" x="202.445937" xlink:href="#m30da260fa8" y="111.904948"/>
      </g>
     </g>
    </g>
   </g>
   <g id="matplotlib.axis_2">
    <g id="ytick_1">
     <g id="line2d_7">
      <defs>
       <path d="M 0 0 
L -3.5 0 
" id="m56ed9d36b7" style="stroke:#000000;stroke-width:0.8;"/>
      </defs>
      <g>
       <use style="stroke:#000000;stroke-width:0.8;" x="28.845937" xlink:href="#m56ed9d36b7" y="111.904948"/>
      </g>
     </g>
    </g>
    <g id="ytick_2">
     <g id="line2d_8">
      <g>
       <use style="stroke:#000000;stroke-width:0.8;" x="28.845937" xlink:href="#m56ed9d36b7" y="68.882726"/>
      </g>
     </g>
    </g>
    <g id="ytick_3">
     <g id="line2d_9">
      <g>
       <use style="stroke:#000000;stroke-width:0.8;" x="28.845937" xlink:href="#m56ed9d36b7" y="25.860503"/>
      </g>
     </g>
    </g>
    <g id="text_1">
     <!-- wear -->
     <defs>
      <path d="M 4.203125 54.6875 
L 13.1875 54.6875 
L 24.421875 12.015625 
L 35.59375 54.6875 
L 46.1875 54.6875 
L 57.421875 12.015625 
L 68.609375 54.6875 
L 77.59375 54.6875 
L 63.28125 0 
L 52.6875 0 
L 40.921875 44.828125 
L 29.109375 0 
L 18.5 0 
z
" id="DejaVuSans-77"/>
      <path d="M 56.203125 29.59375 
L 56.203125 25.203125 
L 14.890625 25.203125 
Q 15.484375 15.921875 20.484375 11.0625 
Q 25.484375 6.203125 34.421875 6.203125 
Q 39.59375 6.203125 44.453125 7.46875 
Q 49.3125 8.734375 54.109375 11.28125 
L 54.109375 2.78125 
Q 49.265625 0.734375 44.1875 -0.34375 
Q 39.109375 -1.421875 33.890625 -1.421875 
Q 20.796875 -1.421875 13.15625 6.1875 
Q 5.515625 13.8125 5.515625 26.8125 
Q 5.515625 40.234375 12.765625 48.109375 
Q 20.015625 56 32.328125 56 
Q 43.359375 56 49.78125 48.890625 
Q 56.203125 41.796875 56.203125 29.59375 
z
M 47.21875 32.234375 
Q 47.125 39.59375 43.09375 43.984375 
Q 39.0625 48.390625 32.421875 48.390625 
Q 24.90625 48.390625 20.390625 44.140625 
Q 15.875 39.890625 15.1875 32.171875 
z
" id="DejaVuSans-65"/>
      <path d="M 34.28125 27.484375 
Q 23.390625 27.484375 19.1875 25 
Q 14.984375 22.515625 14.984375 16.5 
Q 14.984375 11.71875 18.140625 8.90625 
Q 21.296875 6.109375 26.703125 6.109375 
Q 34.1875 6.109375 38.703125 11.40625 
Q 43.21875 16.703125 43.21875 25.484375 
L 43.21875 27.484375 
z
M 52.203125 31.203125 
L 52.203125 0 
L 43.21875 0 
L 43.21875 8.296875 
Q 40.140625 3.328125 35.546875 0.953125 
Q 30.953125 -1.421875 24.3125 -1.421875 
Q 15.921875 -1.421875 10.953125 3.296875 
Q 6 8.015625 6 15.921875 
Q 6 25.140625 12.171875 29.828125 
Q 18.359375 34.515625 30.609375 34.515625 
L 43.21875 34.515625 
L 43.21875 35.40625 
Q 43.21875 41.609375 39.140625 45 
Q 35.0625 48.390625 27.6875 48.390625 
Q 23 48.390625 18.546875 47.265625 
Q 14.109375 46.140625 10.015625 43.890625 
L 10.015625 52.203125 
Q 14.9375 54.109375 19.578125 55.046875 
Q 24.21875 56 28.609375 56 
Q 40.484375 56 46.34375 49.84375 
Q 52.203125 43.703125 52.203125 31.203125 
z
" id="DejaVuSans-61"/>
      <path d="M 41.109375 46.296875 
Q 39.59375 47.171875 37.8125 47.578125 
Q 36.03125 48 33.890625 48 
Q 26.265625 48 22.1875 43.046875 
Q 18.109375 38.09375 18.109375 28.8125 
L 18.109375 0 
L 9.078125 0 
L 9.078125 54.6875 
L 18.109375 54.6875 
L 18.109375 46.1875 
Q 20.953125 51.171875 25.484375 53.578125 
Q 30.03125 56 36.53125 56 
Q 37.453125 56 38.578125 55.875 
Q 39.703125 55.765625 41.0625 55.515625 
z
" id="DejaVuSans-72"/>
     </defs>
     <g transform="translate(15.558281 80.245286)rotate(-90)scale(0.11 -0.11)">
      <use xlink:href="#DejaVuSans-77"/>
      <use x="81.787109" xlink:href="#DejaVuSans-65"/>
      <use x="143.310547" xlink:href="#DejaVuSans-61"/>
      <use x="204.589844" xlink:href="#DejaVuSans-72"/>
     </g>
    </g>
   </g>
   <g id="patch_4">
    <path d="M 28.845937 111.904948 
L 28.845937 21.558281 
" style="fill:none;stroke:#000000;stroke-linecap:square;stroke-linejoin:miter;stroke-width:0.8;"/>
   </g>
   <g id="patch_5">
    <path d="M 28.845937 111.904948 
L 202.445937 111.904948 
" style="fill:none;stroke:#000000;stroke-linecap:square;stroke-linejoin:miter;stroke-width:0.8;"/>
   </g>
   <g id="text_2">
    <!-- $\ast$ -->
    <defs>
     <path d="M 33.640625 31.34375 
L 12.75 43.40625 
L 16.890625 50.59375 
L 37.796875 38.53125 
L 37.796875 62.703125 
L 46 62.703125 
L 46 38.53125 
L 66.890625 50.59375 
L 71.046875 43.40625 
L 50.140625 31.34375 
L 71.046875 19.28125 
L 66.890625 12.109375 
L 46 24.171875 
L 46 0 
L 37.796875 0 
L 37.796875 24.171875 
L 16.890625 12.109375 
L 12.75 19.28125 
z
" id="DejaVuSans-2217"/>
    </defs>
    <g transform="translate(218.503937 68.882726)scale(0.11 -0.11)">
     <use transform="translate(0 0.296875)" xlink:href="#DejaVuSans-2217"/>
    </g>
   </g>
   <g id="text_3">
    <!-- Random offset -->
    <defs>
     <path d="M 44.390625 34.1875 
Q 47.5625 33.109375 50.5625 29.59375 
Q 53.5625 26.078125 56.59375 19.921875 
L 66.609375 0 
L 56 0 
L 46.6875 18.703125 
Q 43.0625 26.03125 39.671875 28.421875 
Q 36.28125 30.8125 30.421875 30.8125 
L 19.671875 30.8125 
L 19.671875 0 
L 9.8125 0 
L 9.8125 72.90625 
L 32.078125 72.90625 
Q 44.578125 72.90625 50.734375 67.671875 
Q 56.890625 62.453125 56.890625 51.90625 
Q 56.890625 45.015625 53.6875 40.46875 
Q 50.484375 35.9375 44.390625 34.1875 
z
M 19.671875 64.796875 
L 19.671875 38.921875 
L 32.078125 38.921875 
Q 39.203125 38.921875 42.84375 42.21875 
Q 46.484375 45.515625 46.484375 51.90625 
Q 46.484375 58.296875 42.84375 61.546875 
Q 39.203125 64.796875 32.078125 64.796875 
z
" id="DejaVuSans-52"/>
     <path d="M 54.890625 33.015625 
L 54.890625 0 
L 45.90625 0 
L 45.90625 32.71875 
Q 45.90625 40.484375 42.875 44.328125 
Q 39.84375 48.1875 33.796875 48.1875 
Q 26.515625 48.1875 22.3125 43.546875 
Q 18.109375 38.921875 18.109375 30.90625 
L 18.109375 0 
L 9.078125 0 
L 9.078125 54.6875 
L 18.109375 54.6875 
L 18.109375 46.1875 
Q 21.34375 51.125 25.703125 53.5625 
Q 30.078125 56 35.796875 56 
Q 45.21875 56 50.046875 50.171875 
Q 54.890625 44.34375 54.890625 33.015625 
z
" id="DejaVuSans-6e"/>
     <path d="M 45.40625 46.390625 
L 45.40625 75.984375 
L 54.390625 75.984375 
L 54.390625 0 
L 45.40625 0 
L 45.40625 8.203125 
Q 42.578125 3.328125 38.25 0.953125 
Q 33.9375 -1.421875 27.875 -1.421875 
Q 17.96875 -1.421875 11.734375 6.484375 
Q 5.515625 14.40625 5.515625 27.296875 
Q 5.515625 40.1875 11.734375 48.09375 
Q 17.96875 56 27.875 56 
Q 33.9375 56 38.25 53.625 
Q 42.578125 51.265625 45.40625 46.390625 
z
M 14.796875 27.296875 
Q 14.796875 17.390625 18.875 11.75 
Q 22.953125 6.109375 30.078125 6.109375 
Q 37.203125 6.109375 41.296875 11.75 
Q 45.40625 17.390625 45.40625 27.296875 
Q 45.40625 37.203125 41.296875 42.84375 
Q 37.203125 48.484375 30.078125 48.484375 
Q 22.953125 48.484375 18.875 42.84375 
Q 14.796875 37.203125 14.796875 27.296875 
z
" id="DejaVuSans-64"/>
     <path d="M 30.609375 48.390625 
Q 23.390625 48.390625 19.1875 42.75 
Q 14.984375 37.109375 14.984375 27.296875 
Q 14.984375 17.484375 19.15625 11.84375 
Q 23.34375 6.203125 30.609375 6.203125 
Q 37.796875 6.203125 41.984375 11.859375 
Q 46.1875 17.53125 46.1875 27.296875 
Q 46.1875 37.015625 41.984375 42.703125 
Q 37.796875 48.390625 30.609375 48.390625 
z
M 30.609375 56 
Q 42.328125 56 49.015625 48.375 
Q 55.71875 40.765625 55.71875 27.296875 
Q 55.71875 13.875 49.015625 6.21875 
Q 42.328125 -1.421875 30.609375 -1.421875 
Q 18.84375 -1.421875 12.171875 6.21875 
Q 5.515625 13.875 5.515625 27.296875 
Q 5.515625 40.765625 12.171875 48.375 
Q 18.84375 56 30.609375 56 
z
" id="DejaVuSans-6f"/>
     <path d="M 52 44.1875 
Q 55.375 50.25 60.0625 53.125 
Q 64.75 56 71.09375 56 
Q 79.640625 56 84.28125 50.015625 
Q 88.921875 44.046875 88.921875 33.015625 
L 88.921875 0 
L 79.890625 0 
L 79.890625 32.71875 
Q 79.890625 40.578125 77.09375 44.375 
Q 74.3125 48.1875 68.609375 48.1875 
Q 61.625 48.1875 57.5625 43.546875 
Q 53.515625 38.921875 53.515625 30.90625 
L 53.515625 0 
L 44.484375 0 
L 44.484375 32.71875 
Q 44.484375 40.625 41.703125 44.40625 
Q 38.921875 48.1875 33.109375 48.1875 
Q 26.21875 48.1875 22.15625 43.53125 
Q 18.109375 38.875 18.109375 30.90625 
L 18.109375 0 
L 9.078125 0 
L 9.078125 54.6875 
L 18.109375 54.6875 
L 18.109375 46.1875 
Q 21.1875 51.21875 25.484375 53.609375 
Q 29.78125 56 35.6875 56 
Q 41.65625 56 45.828125 52.96875 
Q 50 49.953125 52 44.1875 
z
" id="DejaVuSans-6d"/>
     <path id="DejaVuSans-20"/>
     <path d="M 37.109375 75.984375 
L 37.109375 68.5 
L 28.515625 68.5 
Q 23.6875 68.5 21.796875 66.546875 
Q 19.921875 64.59375 19.921875 59.515625 
L 19.921875 54.6875 
L 34.71875 54.6875 
L 34.71875 47.703125 
L 19.921875 47.703125 
L 19.921875 0 
L 10.890625 0 
L 10.890625 47.703125 
L 2.296875 47.703125 
L 2.296875 54.6875 
L 10.890625 54.6875 
L 10.890625 58.5 
Q 10.890625 67.625 15.140625 71.796875 
Q 19.390625 75.984375 28.609375 75.984375 
z
" id="DejaVuSans-66"/>
     <path d="M 44.28125 53.078125 
L 44.28125 44.578125 
Q 40.484375 46.53125 36.375 47.5 
Q 32.28125 48.484375 27.875 48.484375 
Q 21.1875 48.484375 17.84375 46.4375 
Q 14.5 44.390625 14.5 40.28125 
Q 14.5 37.15625 16.890625 35.375 
Q 19.28125 33.59375 26.515625 31.984375 
L 29.59375 31.296875 
Q 39.15625 29.25 43.1875 25.515625 
Q 47.21875 21.78125 47.21875 15.09375 
Q 47.21875 7.46875 41.1875 3.015625 
Q 35.15625 -1.421875 24.609375 -1.421875 
Q 20.21875 -1.421875 15.453125 -0.5625 
Q 10.6875 0.296875 5.421875 2 
L 5.421875 11.28125 
Q 10.40625 8.6875 15.234375 7.390625 
Q 20.0625 6.109375 24.8125 6.109375 
Q 31.15625 6.109375 34.5625 8.28125 
Q 37.984375 10.453125 37.984375 14.40625 
Q 37.984375 18.0625 35.515625 20.015625 
Q 33.0625 21.96875 24.703125 23.78125 
L 21.578125 24.515625 
Q 13.234375 26.265625 9.515625 29.90625 
Q 5.8125 33.546875 5.8125 39.890625 
Q 5.8125 47.609375 11.28125 51.796875 
Q 16.75 56 26.8125 56 
Q 31.78125 56 36.171875 55.265625 
Q 40.578125 54.546875 44.28125 53.078125 
z
" id="DejaVuSans-73"/>
     <path d="M 18.3125 70.21875 
L 18.3125 54.6875 
L 36.8125 54.6875 
L 36.8125 47.703125 
L 18.3125 47.703125 
L 18.3125 18.015625 
Q 18.3125 11.328125 20.140625 9.421875 
Q 21.96875 7.515625 27.59375 7.515625 
L 36.8125 7.515625 
L 36.8125 0 
L 27.59375 0 
Q 17.1875 0 13.234375 3.875 
Q 9.28125 7.765625 9.28125 18.015625 
L 9.28125 47.703125 
L 2.6875 47.703125 
L 2.6875 54.6875 
L 9.28125 54.6875 
L 9.28125 70.21875 
z
" id="DejaVuSans-74"/>
    </defs>
    <g transform="translate(75.364453 15.558281)scale(0.11 -0.11)">
     <use xlink:href="#DejaVuSans-52"/>
     <use x="69.451172" xlink:href="#DejaVuSans-61"/>
     <use x="130.730469" xlink:href="#DejaVuSans-6e"/>
     <use x="194.109375" xlink:href="#DejaVuSans-64"/>
     <use x="257.585938" xlink:href="#DejaVuSans-6f"/>
     <use x="318.767578" xlink:href="#DejaVuSans-6d"/>
     <use x="416.179688" xlink:href="#DejaVuSans-20"/>
     <use x="447.966797" xlink:href="#DejaVuSans-6f"/>
     <use x="509.148438" xlink:href="#DejaVuSans-66"/>
     <use x="544.353516" xlink:href="#DejaVuSans-66"/>
     <use x="579.558594" xlink:href="#DejaVuSans-73"/>
     <use x="631.658203" xlink:href="#DejaVuSans-65"/>
     <use x="693.181641" xlink:href="#DejaVuSans-74"/>
    </g>
   </g>
  </g>
  <g id="axes_2">
   <g id="patch_6">
    <path d="M 245.845937 111.904948 
L 419.445938 111.904948 
L 419.445938 21.558281 
L 245.845937 21.558281 
z
" style="fill:#ffffff;"/>
   </g>
   <g id="patch_7">
    <path clip-path="url(#p7bfeafe743)" d="M 245.845937 111.904948 
L 245.845937 68.882726 
L 247.581937 68.882726 
L 247.581937 68.882726 
L 249.317937 68.882726 
L 249.317937 68.882726 
L 251.053937 68.882726 
L 251.053937 68.882726 
L 252.789937 68.882726 
L 252.789937 68.882726 
L 254.525937 68.882726 
L 254.525937 68.882726 
L 256.261937 68.882726 
L 256.261937 68.882726 
L 257.997937 68.882726 
L 257.997937 68.882726 
L 259.733937 68.882726 
L 259.733937 68.882726 
L 261.469938 68.882726 
L 261.469938 68.882726 
L 263.205938 68.882726 
L 263.205938 68.882726 
L 264.941937 68.882726 
L 264.941937 68.882726 
L 266.677937 68.882726 
L 266.677937 68.882726 
L 268.413937 68.882726 
L 268.413937 68.882726 
L 270.149937 68.882726 
L 270.149937 68.882726 
L 271.885938 68.882726 
L 271.885938 68.882726 
L 273.621938 68.882726 
L 273.621938 68.882726 
L 275.357937 68.882726 
L 275.357937 68.882726 
L 277.093937 68.882726 
L 277.093937 68.882726 
L 278.829937 68.882726 
L 278.829937 68.882726 
L 280.565938 68.882726 
L 280.565938 68.882726 
L 282.301938 68.882726 
L 282.301938 68.882726 
L 284.037937 68.882726 
L 284.037937 68.882726 
L 285.773937 68.882726 
L 285.773937 68.882726 
L 287.509937 68.882726 
L 287.509937 68.882726 
L 289.245937 68.882726 
L 289.245937 68.882726 
L 290.981938 68.882726 
L 290.981938 68.882726 
L 292.717938 68.882726 
L 292.717938 68.882726 
L 294.453937 68.882726 
L 294.453937 68.882726 
L 296.189937 68.882726 
L 296.189937 68.882726 
L 297.925937 68.882726 
L 297.925937 111.904948 
L 299.661938 111.904948 
L 299.661938 111.904948 
L 301.397938 111.904948 
L 301.397938 111.904948 
L 303.133938 111.904948 
L 303.133938 111.904948 
L 304.869937 111.904948 
L 304.869937 111.904948 
L 306.605937 111.904948 
L 306.605937 111.904948 
L 308.341937 111.904948 
L 308.341937 111.904948 
L 310.077938 111.904948 
L 310.077938 111.904948 
L 311.813938 111.904948 
L 311.813938 111.904948 
L 313.549937 111.904948 
L 313.549937 111.904948 
L 315.285937 111.904948 
L 315.285937 111.904948 
L 317.021937 111.904948 
L 317.021937 111.904948 
L 318.757938 111.904948 
L 318.757938 111.904948 
L 320.493938 111.904948 
L 320.493938 111.904948 
L 322.229938 111.904948 
L 322.229938 111.904948 
L 323.965937 111.904948 
L 323.965937 111.904948 
L 325.701937 111.904948 
L 325.701937 111.904948 
L 327.437937 111.904948 
L 327.437937 111.904948 
L 329.173937 111.904948 
L 329.173937 111.904948 
L 330.909938 111.904948 
L 330.909938 111.904948 
L 332.645938 111.904948 
L 332.645938 111.904948 
L 334.381937 111.904948 
L 334.381937 111.904948 
L 336.117937 111.904948 
L 336.117937 111.904948 
L 337.853938 111.904948 
L 337.853938 111.904948 
L 339.589938 111.904948 
L 339.589938 111.904948 
L 341.325938 111.904948 
L 341.325938 111.904948 
L 343.061937 111.904948 
L 343.061937 111.904948 
L 344.797937 111.904948 
L 344.797937 111.904948 
L 346.533937 111.904948 
L 346.533937 111.904948 
L 348.269937 111.904948 
L 348.269937 111.904948 
L 350.005938 111.904948 
L 350.005938 111.904948 
L 351.741938 111.904948 
L 351.741938 111.904948 
L 353.477937 111.904948 
L 353.477937 111.904948 
L 355.213937 111.904948 
L 355.213937 111.904948 
L 356.949938 111.904948 
L 356.949938 111.904948 
L 358.685938 111.904948 
L 358.685938 111.904948 
L 360.421938 111.904948 
L 360.421938 111.904948 
L 362.157938 111.904948 
L 362.157938 111.904948 
L 363.893937 111.904948 
L 363.893937 111.904948 
L 365.629937 111.904948 
L 365.629937 111.904948 
L 367.365937 111.904948 
L 367.365937 111.904948 
L 369.101938 111.904948 
L 369.101938 111.904948 
L 370.837938 111.904948 
L 370.837938 111.904948 
L 372.573937 111.904948 
L 372.573937 111.904948 
L 374.309938 111.904948 
L 374.309938 111.904948 
L 376.045938 111.904948 
L 376.045938 111.904948 
L 377.781938 111.904948 
L 377.781938 111.904948 
L 379.517938 111.904948 
L 379.517938 111.904948 
L 381.253938 111.904948 
L 381.253938 111.904948 
L 382.989937 111.904948 
L 382.989937 111.904948 
L 384.725937 111.904948 
L 384.725937 111.904948 
L 386.461937 111.904948 
L 386.461937 111.904948 
L 388.197937 111.904948 
L 388.197937 111.904948 
L 389.933938 111.904948 
L 389.933938 111.904948 
L 391.669938 111.904948 
L 391.669938 111.904948 
L 393.405938 111.904948 
L 393.405938 111.904948 
L 395.141938 111.904948 
L 395.141938 111.904948 
L 396.877938 111.904948 
L 396.877938 111.904948 
L 398.613938 111.904948 
L 398.613938 111.904948 
L 400.349938 111.904948 
L 400.349938 111.904948 
L 402.085938 111.904948 
L 402.085938 111.904948 
L 403.821937 111.904948 
L 403.821937 111.904948 
L 405.557937 111.904948 
L 405.557937 111.904948 
L 407.293937 111.904948 
L 407.293937 111.904948 
L 409.029938 111.904948 
L 409.029938 111.904948 
L 410.765938 111.904948 
L 410.765938 111.904948 
L 412.501937 111.904948 
L 412.501937 111.904948 
L 414.237938 111.904948 
L 414.237938 111.904948 
L 415.973938 111.904948 
L 415.973938 111.904948 
L 417.709938 111.904948 
L 417.709938 111.904948 
L 419.445938 111.904948 
L 419.445938 111.904948 
L 417.709938 111.904948 
L 417.709938 111.904948 
L 415.973938 111.904948 
L 415.973938 111.904948 
L 414.237938 111.904948 
L 414.237938 111.904948 
L 412.501937 111.904948 
L 412.501937 111.904948 
L 410.765938 111.904948 
L 410.765938 111.904948 
L 409.029938 111.904948 
L 409.029938 111.904948 
L 407.293937 111.904948 
L 407.293937 111.904948 
L 405.557937 111.904948 
L 405.557937 111.904948 
L 403.821937 111.904948 
L 403.821937 111.904948 
L 402.085938 111.904948 
L 402.085938 111.904948 
L 400.349938 111.904948 
L 400.349938 111.904948 
L 398.613938 111.904948 
L 398.613938 111.904948 
L 396.877938 111.904948 
L 396.877938 111.904948 
L 395.141938 111.904948 
L 395.141938 111.904948 
L 393.405938 111.904948 
L 393.405938 111.904948 
L 391.669938 111.904948 
L 391.669938 111.904948 
L 389.933938 111.904948 
L 389.933938 111.904948 
L 388.197937 111.904948 
L 388.197937 111.904948 
L 386.461937 111.904948 
L 386.461937 111.904948 
L 384.725937 111.904948 
L 384.725937 111.904948 
L 382.989937 111.904948 
L 382.989937 111.904948 
L 381.253938 111.904948 
L 381.253938 111.904948 
L 379.517938 111.904948 
L 379.517938 111.904948 
L 377.781938 111.904948 
L 377.781938 111.904948 
L 376.045938 111.904948 
L 376.045938 111.904948 
L 374.309938 111.904948 
L 374.309938 111.904948 
L 372.573937 111.904948 
L 372.573937 111.904948 
L 370.837938 111.904948 
L 370.837938 111.904948 
L 369.101938 111.904948 
L 369.101938 111.904948 
L 367.365937 111.904948 
L 367.365937 111.904948 
L 365.629937 111.904948 
L 365.629937 111.904948 
L 363.893937 111.904948 
L 363.893937 111.904948 
L 362.157938 111.904948 
L 362.157938 111.904948 
L 360.421938 111.904948 
L 360.421938 111.904948 
L 358.685938 111.904948 
L 358.685938 111.904948 
L 356.949938 111.904948 
L 356.949938 111.904948 
L 355.213937 111.904948 
L 355.213937 111.904948 
L 353.477937 111.904948 
L 353.477937 111.904948 
L 351.741938 111.904948 
L 351.741938 111.904948 
L 350.005938 111.904948 
L 350.005938 111.904948 
L 348.269937 111.904948 
L 348.269937 111.904948 
L 346.533937 111.904948 
L 346.533937 111.904948 
L 344.797937 111.904948 
L 344.797937 111.904948 
L 343.061937 111.904948 
L 343.061937 111.904948 
L 341.325938 111.904948 
L 341.325938 111.904948 
L 339.589938 111.904948 
L 339.589938 111.904948 
L 337.853938 111.904948 
L 337.853938 111.904948 
L 336.117937 111.904948 
L 336.117937 111.904948 
L 334.381937 111.904948 
L 334.381937 111.904948 
L 332.645938 111.904948 
L 332.645938 111.904948 
L 330.909938 111.904948 
L 330.909938 111.904948 
L 329.173937 111.904948 
L 329.173937 111.904948 
L 327.437937 111.904948 
L 327.437937 111.904948 
L 325.701937 111.904948 
L 325.701937 111.904948 
L 323.965937 111.904948 
L 323.965937 111.904948 
L 322.229938 111.904948 
L 322.229938 111.904948 
L 320.493938 111.904948 
L 320.493938 111.904948 
L 318.757938 111.904948 
L 318.757938 111.904948 
L 317.021937 111.904948 
L 317.021937 111.904948 
L 315.285937 111.904948 
L 315.285937 111.904948 
L 313.549937 111.904948 
L 313.549937 111.904948 
L 311.813938 111.904948 
L 311.813938 111.904948 
L 310.077938 111.904948 
L 310.077938 111.904948 
L 308.341937 111.904948 
L 308.341937 111.904948 
L 306.605937 111.904948 
L 306.605937 111.904948 
L 304.869937 111.904948 
L 304.869937 111.904948 
L 303.133938 111.904948 
L 303.133938 111.904948 
L 301.397938 111.904948 
L 301.397938 111.904948 
L 299.661938 111.904948 
L 299.661938 111.904948 
L 297.925937 111.904948 
L 297.925937 111.904948 
L 296.189937 111.904948 
L 296.189937 111.904948 
L 294.453937 111.904948 
L 294.453937 111.904948 
L 292.717938 111.904948 
L 292.717938 111.904948 
L 290.981938 111.904948 
L 290.981938 111.904948 
L 289.245937 111.904948 
L 289.245937 111.904948 
L 287.509937 111.904948 
L 287.509937 111.904948 
L 285.773937 111.904948 
L 285.773937 111.904948 
L 284.037937 111.904948 
L 284.037937 111.904948 
L 282.301938 111.904948 
L 282.301938 111.904948 
L 280.565938 111.904948 
L 280.565938 111.904948 
L 278.829937 111.904948 
L 278.829937 111.904948 
L 277.093937 111.904948 
L 277.093937 111.904948 
L 275.357937 111.904948 
L 275.357937 111.904948 
L 273.621938 111.904948 
L 273.621938 111.904948 
L 271.885938 111.904948 
L 271.885938 111.904948 
L 270.149937 111.904948 
L 270.149937 111.904948 
L 268.413937 111.904948 
L 268.413937 111.904948 
L 266.677937 111.904948 
L 266.677937 111.904948 
L 264.941937 111.904948 
L 264.941937 111.904948 
L 263.205938 111.904948 
L 263.205938 111.904948 
L 261.469938 111.904948 
L 261.469938 111.904948 
L 259.733937 111.904948 
L 259.733937 111.904948 
L 257.997937 111.904948 
L 257.997937 111.904948 
L 256.261937 111.904948 
L 256.261937 111.904948 
L 254.525937 111.904948 
L 254.525937 111.904948 
L 252.789937 111.904948 
L 252.789937 111.904948 
L 251.053937 111.904948 
L 251.053937 111.904948 
L 249.317937 111.904948 
L 249.317937 111.904948 
L 247.581937 111.904948 
L 247.581937 111.904948 
z
" style="fill:#1f77b4;"/>
   </g>
   <g id="matplotlib.axis_3">
    <g id="xtick_7">
     <g id="line2d_10">
      <g>
       <use style="stroke:#000000;stroke-width:0.8;" x="245.845937" xlink:href="#m30da260fa8" y="111.904948"/>
      </g>
     </g>
    </g>
    <g id="xtick_8">
     <g id="line2d_11">
      <g>
       <use style="stroke:#000000;stroke-width:0.8;" x="280.565938" xlink:href="#m30da260fa8" y="111.904948"/>
      </g>
     </g>
    </g>
    <g id="xtick_9">
     <g id="line2d_12">
      <g>
       <use style="stroke:#000000;stroke-width:0.8;" x="315.285937" xlink:href="#m30da260fa8" y="111.904948"/>
      </g>
     </g>
    </g>
    <g id="xtick_10">
     <g id="line2d_13">
      <g>
       <use style="stroke:#000000;stroke-width:0.8;" x="350.005938" xlink:href="#m30da260fa8" y="111.904948"/>
      </g>
     </g>
    </g>
    <g id="xtick_11">
     <g id="line2d_14">
      <g>
       <use style="stroke:#000000;stroke-width:0.8;" x="384.725937" xlink:href="#m30da260fa8" y="111.904948"/>
      </g>
     </g>
    </g>
    <g id="xtick_12">
     <g id="line2d_15">
      <g>
       <use style="stroke:#000000;stroke-width:0.8;" x="419.445938" xlink:href="#m30da260fa8" y="111.904948"/>
      </g>
     </g>
    </g>
   </g>
   <g id="matplotlib.axis_4">
    <g id="ytick_4">
     <g id="line2d_16">
      <g>
       <use style="stroke:#000000;stroke-width:0.8;" x="245.845937" xlink:href="#m56ed9d36b7" y="111.904948"/>
      </g>
     </g>
    </g>
    <g id="ytick_5">
     <g id="line2d_17">
      <g>
       <use style="stroke:#000000;stroke-width:0.8;" x="245.845937" xlink:href="#m56ed9d36b7" y="68.882726"/>
      </g>
     </g>
    </g>
    <g id="ytick_6">
     <g id="line2d_18">
      <g>
       <use style="stroke:#000000;stroke-width:0.8;" x="245.845937" xlink:href="#m56ed9d36b7" y="25.860503"/>
      </g>
     </g>
    </g>
   </g>
   <g id="patch_8">
    <path d="M 245.845937 111.904948 
L 245.845937 21.558281 
" style="fill:none;stroke:#000000;stroke-linecap:square;stroke-linejoin:miter;stroke-width:0.8;"/>
   </g>
   <g id="patch_9">
    <path d="M 245.845937 111.904948 
L 419.445938 111.904948 
" style="fill:none;stroke:#000000;stroke-linecap:square;stroke-linejoin:miter;stroke-width:0.8;"/>
   </g>
   <g id="text_4">
    <!-- Linear allocation -->
    <defs>
     <path d="M 9.8125 72.90625 
L 19.671875 72.90625 
L 19.671875 8.296875 
L 55.171875 8.296875 
L 55.171875 0 
L 9.8125 0 
z
" id="DejaVuSans-4c"/>
     <path d="M 9.421875 54.6875 
L 18.40625 54.6875 
L 18.40625 0 
L 9.421875 0 
z
M 9.421875 75.984375 
L 18.40625 75.984375 
L 18.40625 64.59375 
L 9.421875 64.59375 
z
" id="DejaVuSans-69"/>
     <path d="M 9.421875 75.984375 
L 18.40625 75.984375 
L 18.40625 0 
L 9.421875 0 
z
" id="DejaVuSans-6c"/>
     <path d="M 48.78125 52.59375 
L 48.78125 44.1875 
Q 44.96875 46.296875 41.140625 47.34375 
Q 37.3125 48.390625 33.40625 48.390625 
Q 24.65625 48.390625 19.8125 42.84375 
Q 14.984375 37.3125 14.984375 27.296875 
Q 14.984375 17.28125 19.8125 11.734375 
Q 24.65625 6.203125 33.40625 6.203125 
Q 37.3125 6.203125 41.140625 7.25 
Q 44.96875 8.296875 48.78125 10.40625 
L 48.78125 2.09375 
Q 45.015625 0.34375 40.984375 -0.53125 
Q 36.96875 -1.421875 32.421875 -1.421875 
Q 20.0625 -1.421875 12.78125 6.34375 
Q 5.515625 14.109375 5.515625 27.296875 
Q 5.515625 40.671875 12.859375 48.328125 
Q 20.21875 56 33.015625 56 
Q 37.15625 56 41.109375 55.140625 
Q 45.0625 54.296875 48.78125 52.59375 
z
" id="DejaVuSans-63"/>
    </defs>
    <g transform="translate(287.082734 15.558281)scale(0.11 -0.11)">
     <use xlink:href="#DejaVuSans-4c"/>
     <use x="55.712891" xlink:href="#DejaVuSans-69"/>
     <use x="83.496094" xlink:href="#DejaVuSans-6e"/>
     <use x="146.875" xlink:href="#DejaVuSans-65"/>
     <use x="208.398438" xlink:href="#DejaVuSans-61"/>
     <use x="269.677734" xlink:href="#DejaVuSans-72"/>
     <use x="310.791016" xlink:href="#DejaVuSans-20"/>
     <use x="342.578125" xlink:href="#DejaVuSans-61"/>
     <use x="403.857422" xlink:href="#DejaVuSans-6c"/>
     <use x="431.640625" xlink:href="#DejaVuSans-6c"/>
     <use x="459.423828" xlink:href="#DejaVuSans-6f"/>
     <use x="520.605469" xlink:href="#DejaVuSans-63"/>
     <use x="575.585938" xlink:href="#DejaVuSans-61"/>
     <use x="636.865234" xlink:href="#DejaVuSans-74"/>
     <use x="676.074219" xlink:href="#DejaVuSans-69"/>
     <use x="703.857422" xlink:href="#DejaVuSans-6f"/>
     <use x="765.039062" xlink:href="#DejaVuSans-6e"/>
    </g>
   </g>
  </g>
  <g id="axes_3">
   <g id="patch_10">
    <path d="M 28.845937 326.478281 
L 419.445938 326.478281 
L 419.445938 145.784948 
L 28.845937 145.784948 
z
" style="fill:#ffffff;"/>
   </g>
   <g id="patch_11">
    <path clip-path="url(#pf388380ca9)" d="M 28.845937 326.478281 
L 28.845937 207.33982 
L 32.751937 207.33982 
L 32.751937 207.33982 
L 36.657937 207.33982 
L 36.657937 180.864606 
L 40.563937 180.864606 
L 40.563937 207.33982 
L 44.469938 207.33982 
L 44.469938 194.102213 
L 48.375937 194.102213 
L 48.375937 180.864606 
L 52.281937 180.864606 
L 52.281937 180.864606 
L 56.187938 180.864606 
L 56.187938 180.864606 
L 60.093937 180.864606 
L 60.093937 207.33982 
L 63.999938 207.33982 
L 63.999938 207.33982 
L 67.905937 207.33982 
L 67.905937 207.33982 
L 71.811937 207.33982 
L 71.811937 194.102213 
L 75.717938 194.102213 
L 75.717938 180.864606 
L 79.623937 180.864606 
L 79.623937 180.864606 
L 83.529938 180.864606 
L 83.529938 194.102213 
L 87.435937 194.102213 
L 87.435937 194.102213 
L 91.341938 194.102213 
L 91.341938 194.102213 
L 95.247938 194.102213 
L 95.247938 194.102213 
L 99.153938 194.102213 
L 99.153938 180.864606 
L 103.059937 180.864606 
L 103.059937 180.864606 
L 106.965937 180.864606 
L 106.965937 194.102213 
L 110.871938 194.102213 
L 110.871938 167.626999 
L 114.777938 167.626999 
L 114.777938 167.626999 
L 118.683938 167.626999 
L 118.683938 167.626999 
L 122.589937 167.626999 
L 122.589937 167.626999 
L 126.495937 167.626999 
L 126.495937 154.389392 
L 130.401938 154.389392 
L 130.401938 154.389392 
L 134.307938 154.389392 
L 134.307938 154.389392 
L 138.213938 154.389392 
L 138.213938 154.389392 
L 142.119937 154.389392 
L 142.119937 167.626999 
L 146.025937 167.626999 
L 146.025937 154.389392 
L 149.931938 154.389392 
L 149.931938 154.389392 
L 153.837938 154.389392 
L 153.837938 180.864606 
L 157.743937 180.864606 
L 157.743937 180.864606 
L 161.649937 180.864606 
L 161.649937 194.102213 
L 165.555937 194.102213 
L 165.555937 220.577427 
L 169.461938 220.577427 
L 169.461938 220.577427 
L 173.367937 220.577427 
L 173.367937 220.577427 
L 177.273937 220.577427 
L 177.273937 220.577427 
L 181.179937 220.577427 
L 181.179937 220.577427 
L 185.085938 220.577427 
L 185.085938 220.577427 
L 188.991938 220.577427 
L 188.991938 233.815033 
L 192.897937 233.815033 
L 192.897937 220.577427 
L 196.803937 220.577427 
L 196.803937 207.33982 
L 200.709937 207.33982 
L 200.709937 207.33982 
L 204.615938 207.33982 
L 204.615938 194.102213 
L 208.521938 194.102213 
L 208.521938 194.102213 
L 212.427937 194.102213 
L 212.427937 180.864606 
L 216.333937 180.864606 
L 216.333937 207.33982 
L 220.239937 207.33982 
L 220.239937 207.33982 
L 224.145938 207.33982 
L 224.145938 207.33982 
L 228.051938 207.33982 
L 228.051938 233.815033 
L 231.957937 233.815033 
L 231.957937 233.815033 
L 235.863937 233.815033 
L 235.863937 233.815033 
L 239.769937 233.815033 
L 239.769937 233.815033 
L 243.675938 233.815033 
L 243.675938 247.05264 
L 247.581938 247.05264 
L 247.581938 247.05264 
L 251.487937 247.05264 
L 251.487937 247.05264 
L 255.393937 247.05264 
L 255.393937 247.05264 
L 259.299937 247.05264 
L 259.299937 247.05264 
L 263.205938 247.05264 
L 263.205938 260.290247 
L 267.111938 260.290247 
L 267.111938 260.290247 
L 271.017938 260.290247 
L 271.017938 260.290247 
L 274.923938 260.290247 
L 274.923938 260.290247 
L 278.829938 260.290247 
L 278.829938 260.290247 
L 282.735938 260.290247 
L 282.735938 260.290247 
L 286.641937 260.290247 
L 286.641937 247.05264 
L 290.547937 247.05264 
L 290.547937 247.05264 
L 294.453937 247.05264 
L 294.453937 233.815033 
L 298.359938 233.815033 
L 298.359938 233.815033 
L 302.265938 233.815033 
L 302.265938 220.577427 
L 306.171938 220.577427 
L 306.171938 220.577427 
L 310.077938 220.577427 
L 310.077938 247.05264 
L 313.983938 247.05264 
L 313.983938 233.815033 
L 317.889937 233.815033 
L 317.889937 233.815033 
L 321.795937 233.815033 
L 321.795937 233.815033 
L 325.701937 233.815033 
L 325.701937 233.815033 
L 329.607937 233.815033 
L 329.607937 247.05264 
L 333.513937 247.05264 
L 333.513937 220.577427 
L 337.419938 220.577427 
L 337.419938 220.577427 
L 341.325938 220.577427 
L 341.325938 220.577427 
L 345.231938 220.577427 
L 345.231938 220.577427 
L 349.137938 220.577427 
L 349.137938 220.577427 
L 353.043938 220.577427 
L 353.043938 220.577427 
L 356.949937 220.577427 
L 356.949937 207.33982 
L 360.855937 207.33982 
L 360.855937 207.33982 
L 364.761937 207.33982 
L 364.761937 207.33982 
L 368.667937 207.33982 
L 368.667937 207.33982 
L 372.573937 207.33982 
L 372.573937 194.102213 
L 376.479938 194.102213 
L 376.479938 194.102213 
L 380.385938 194.102213 
L 380.385938 180.864606 
L 384.291938 180.864606 
L 384.291938 180.864606 
L 388.197938 180.864606 
L 388.197938 180.864606 
L 392.103938 180.864606 
L 392.103938 180.864606 
L 396.009937 180.864606 
L 396.009937 180.864606 
L 399.915937 180.864606 
L 399.915937 180.864606 
L 403.821937 180.864606 
L 403.821937 194.102213 
L 407.727937 194.102213 
L 407.727937 194.102213 
L 411.633938 194.102213 
L 411.633938 207.33982 
L 415.539938 207.33982 
L 415.539938 194.102213 
L 419.445938 194.102213 
L 419.445938 326.478281 
L 415.539938 326.478281 
L 415.539938 326.478281 
L 411.633938 326.478281 
L 411.633938 326.478281 
L 407.727937 326.478281 
L 407.727937 326.478281 
L 403.821937 326.478281 
L 403.821937 326.478281 
L 399.915937 326.478281 
L 399.915937 326.478281 
L 396.009937 326.478281 
L 396.009937 326.478281 
L 392.103938 326.478281 
L 392.103938 326.478281 
L 388.197938 326.478281 
L 388.197938 326.478281 
L 384.291938 326.478281 
L 384.291938 326.478281 
L 380.385938 326.478281 
L 380.385938 326.478281 
L 376.479938 326.478281 
L 376.479938 326.478281 
L 372.573937 326.478281 
L 372.573937 326.478281 
L 368.667937 326.478281 
L 368.667937 326.478281 
L 364.761937 326.478281 
L 364.761937 326.478281 
L 360.855937 326.478281 
L 360.855937 326.478281 
L 356.949937 326.478281 
L 356.949937 326.478281 
L 353.043938 326.478281 
L 353.043938 326.478281 
L 349.137938 326.478281 
L 349.137938 326.478281 
L 345.231938 326.478281 
L 345.231938 326.478281 
L 341.325938 326.478281 
L 341.325938 326.478281 
L 337.419938 326.478281 
L 337.419938 326.478281 
L 333.513937 326.478281 
L 333.513937 326.478281 
L 329.607937 326.478281 
L 329.607937 326.478281 
L 325.701937 326.478281 
L 325.701937 326.478281 
L 321.795937 326.478281 
L 321.795937 326.478281 
L 317.889937 326.478281 
L 317.889937 326.478281 
L 313.983938 326.478281 
L 313.983938 326.478281 
L 310.077938 326.478281 
L 310.077938 326.478281 
L 306.171938 326.478281 
L 306.171938 326.478281 
L 302.265938 326.478281 
L 302.265938 326.478281 
L 298.359938 326.478281 
L 298.359938 326.478281 
L 294.453937 326.478281 
L 294.453937 326.478281 
L 290.547937 326.478281 
L 290.547937 326.478281 
L 286.641937 326.478281 
L 286.641937 326.478281 
L 282.735938 326.478281 
L 282.735938 326.478281 
L 278.829938 326.478281 
L 278.829938 326.478281 
L 274.923938 326.478281 
L 274.923938 326.478281 
L 271.017938 326.478281 
L 271.017938 326.478281 
L 267.111938 326.478281 
L 267.111938 326.478281 
L 263.205938 326.478281 
L 263.205938 326.478281 
L 259.299937 326.478281 
L 259.299937 326.478281 
L 255.393937 326.478281 
L 255.393937 326.478281 
L 251.487937 326.478281 
L 251.487937 326.478281 
L 247.581938 326.478281 
L 247.581938 326.478281 
L 243.675938 326.478281 
L 243.675938 326.478281 
L 239.769937 326.478281 
L 239.769937 326.478281 
L 235.863937 326.478281 
L 235.863937 326.478281 
L 231.957937 326.478281 
L 231.957937 326.478281 
L 228.051938 326.478281 
L 228.051938 326.478281 
L 224.145938 326.478281 
L 224.145938 326.478281 
L 220.239937 326.478281 
L 220.239937 326.478281 
L 216.333937 326.478281 
L 216.333937 326.478281 
L 212.427937 326.478281 
L 212.427937 326.478281 
L 208.521938 326.478281 
L 208.521938 326.478281 
L 204.615938 326.478281 
L 204.615938 326.478281 
L 200.709937 326.478281 
L 200.709937 326.478281 
L 196.803937 326.478281 
L 196.803937 326.478281 
L 192.897937 326.478281 
L 192.897937 326.478281 
L 188.991938 326.478281 
L 188.991938 326.478281 
L 185.085938 326.478281 
L 185.085938 326.478281 
L 181.179937 326.478281 
L 181.179937 326.478281 
L 177.273937 326.478281 
L 177.273937 326.478281 
L 173.367937 326.478281 
L 173.367937 326.478281 
L 169.461938 326.478281 
L 169.461938 326.478281 
L 165.555937 326.478281 
L 165.555937 326.478281 
L 161.649937 326.478281 
L 161.649937 326.478281 
L 157.743937 326.478281 
L 157.743937 326.478281 
L 153.837938 326.478281 
L 153.837938 326.478281 
L 149.931938 326.478281 
L 149.931938 326.478281 
L 146.025937 326.478281 
L 146.025937 326.478281 
L 142.119937 326.478281 
L 142.119937 326.478281 
L 138.213938 326.478281 
L 138.213938 326.478281 
L 134.307938 326.478281 
L 134.307938 326.478281 
L 130.401938 326.478281 
L 130.401938 326.478281 
L 126.495937 326.478281 
L 126.495937 326.478281 
L 122.589937 326.478281 
L 122.589937 326.478281 
L 118.683938 326.478281 
L 118.683938 326.478281 
L 114.777938 326.478281 
L 114.777938 326.478281 
L 110.871938 326.478281 
L 110.871938 326.478281 
L 106.965937 326.478281 
L 106.965937 326.478281 
L 103.059937 326.478281 
L 103.059937 326.478281 
L 99.153938 326.478281 
L 99.153938 326.478281 
L 95.247938 326.478281 
L 95.247938 326.478281 
L 91.341938 326.478281 
L 91.341938 326.478281 
L 87.435937 326.478281 
L 87.435937 326.478281 
L 83.529938 326.478281 
L 83.529938 326.478281 
L 79.623937 326.478281 
L 79.623937 326.478281 
L 75.717938 326.478281 
L 75.717938 326.478281 
L 71.811937 326.478281 
L 71.811937 326.478281 
L 67.905937 326.478281 
L 67.905937 326.478281 
L 63.999938 326.478281 
L 63.999938 326.478281 
L 60.093937 326.478281 
L 60.093937 326.478281 
L 56.187938 326.478281 
L 56.187938 326.478281 
L 52.281937 326.478281 
L 52.281937 326.478281 
L 48.375937 326.478281 
L 48.375937 326.478281 
L 44.469938 326.478281 
L 44.469938 326.478281 
L 40.563937 326.478281 
L 40.563937 326.478281 
L 36.657937 326.478281 
L 36.657937 326.478281 
L 32.751937 326.478281 
L 32.751937 326.478281 
z
" style="fill:#1f77b4;"/>
   </g>
   <g id="matplotlib.axis_5">
    <g id="xtick_13">
     <g id="line2d_19">
      <g>
       <use style="stroke:#000000;stroke-width:0.8;" x="28.845937" xlink:href="#m30da260fa8" y="326.478281"/>
      </g>
     </g>
    </g>
    <g id="xtick_14">
     <g id="line2d_20">
      <g>
       <use style="stroke:#000000;stroke-width:0.8;" x="106.965937" xlink:href="#m30da260fa8" y="326.478281"/>
      </g>
     </g>
    </g>
    <g id="xtick_15">
     <g id="line2d_21">
      <g>
       <use style="stroke:#000000;stroke-width:0.8;" x="185.085938" xlink:href="#m30da260fa8" y="326.478281"/>
      </g>
     </g>
    </g>
    <g id="xtick_16">
     <g id="line2d_22">
      <g>
       <use style="stroke:#000000;stroke-width:0.8;" x="263.205938" xlink:href="#m30da260fa8" y="326.478281"/>
      </g>
     </g>
    </g>
    <g id="xtick_17">
     <g id="line2d_23">
      <g>
       <use style="stroke:#000000;stroke-width:0.8;" x="341.325938" xlink:href="#m30da260fa8" y="326.478281"/>
      </g>
     </g>
    </g>
    <g id="xtick_18">
     <g id="line2d_24">
      <g>
       <use style="stroke:#000000;stroke-width:0.8;" x="419.445938" xlink:href="#m30da260fa8" y="326.478281"/>
      </g>
     </g>
    </g>
    <g id="text_5">
     <!-- block address -->
     <defs>
      <path d="M 48.6875 27.296875 
Q 48.6875 37.203125 44.609375 42.84375 
Q 40.53125 48.484375 33.40625 48.484375 
Q 26.265625 48.484375 22.1875 42.84375 
Q 18.109375 37.203125 18.109375 27.296875 
Q 18.109375 17.390625 22.1875 11.75 
Q 26.265625 6.109375 33.40625 6.109375 
Q 40.53125 6.109375 44.609375 11.75 
Q 48.6875 17.390625 48.6875 27.296875 
z
M 18.109375 46.390625 
Q 20.953125 51.265625 25.265625 53.625 
Q 29.59375 56 35.59375 56 
Q 45.5625 56 51.78125 48.09375 
Q 58.015625 40.1875 58.015625 27.296875 
Q 58.015625 14.40625 51.78125 6.484375 
Q 45.5625 -1.421875 35.59375 -1.421875 
Q 29.59375 -1.421875 25.265625 0.953125 
Q 20.953125 3.328125 18.109375 8.203125 
L 18.109375 0 
L 9.078125 0 
L 9.078125 75.984375 
L 18.109375 75.984375 
z
" id="DejaVuSans-62"/>
      <path d="M 9.078125 75.984375 
L 18.109375 75.984375 
L 18.109375 31.109375 
L 44.921875 54.6875 
L 56.390625 54.6875 
L 27.390625 29.109375 
L 57.625 0 
L 45.90625 0 
L 18.109375 26.703125 
L 18.109375 0 
L 9.078125 0 
z
" id="DejaVuSans-6b"/>
     </defs>
     <g transform="translate(186.076484 345.836563)scale(0.11 -0.11)">
      <use xlink:href="#DejaVuSans-62"/>
      <use x="63.476562" xlink:href="#DejaVuSans-6c"/>
      <use x="91.259766" xlink:href="#DejaVuSans-6f"/>
      <use x="152.441406" xlink:href="#DejaVuSans-63"/>
      <use x="207.421875" xlink:href="#DejaVuSans-6b"/>
      <use x="265.332031" xlink:href="#DejaVuSans-20"/>
      <use x="297.119141" xlink:href="#DejaVuSans-61"/>
      <use x="358.398438" xlink:href="#DejaVuSans-64"/>
      <use x="421.875" xlink:href="#DejaVuSans-64"/>
      <use x="485.351562" xlink:href="#DejaVuSans-72"/>
      <use x="526.433594" xlink:href="#DejaVuSans-65"/>
      <use x="587.957031" xlink:href="#DejaVuSans-73"/>
      <use x="640.056641" xlink:href="#DejaVuSans-73"/>
     </g>
    </g>
   </g>
   <g id="matplotlib.axis_6">
    <g id="ytick_7">
     <g id="line2d_25">
      <g>
       <use style="stroke:#000000;stroke-width:0.8;" x="28.845937" xlink:href="#m56ed9d36b7" y="326.478281"/>
      </g>
     </g>
    </g>
    <g id="ytick_8">
     <g id="line2d_26">
      <g>
       <use style="stroke:#000000;stroke-width:0.8;" x="28.845937" xlink:href="#m56ed9d36b7" y="300.003068"/>
      </g>
     </g>
    </g>
    <g id="ytick_9">
     <g id="line2d_27">
      <g>
       <use style="stroke:#000000;stroke-width:0.8;" x="28.845937" xlink:href="#m56ed9d36b7" y="273.527854"/>
      </g>
     </g>
    </g>
    <g id="ytick_10">
     <g id="line2d_28">
      <g>
       <use style="stroke:#000000;stroke-width:0.8;" x="28.845937" xlink:href="#m56ed9d36b7" y="247.05264"/>
      </g>
     </g>
    </g>
    <g id="ytick_11">
     <g id="line2d_29">
      <g>
       <use style="stroke:#000000;stroke-width:0.8;" x="28.845937" xlink:href="#m56ed9d36b7" y="220.577427"/>
      </g>
     </g>
    </g>
    <g id="ytick_12">
     <g id="line2d_30">
      <g>
       <use style="stroke:#000000;stroke-width:0.8;" x="28.845937" xlink:href="#m56ed9d36b7" y="194.102213"/>
      </g>
     </g>
    </g>
    <g id="ytick_13">
     <g id="line2d_31">
      <g>
       <use style="stroke:#000000;stroke-width:0.8;" x="28.845937" xlink:href="#m56ed9d36b7" y="167.626999"/>
      </g>
     </g>
    </g>
    <g id="text_6">
     <!-- wear -->
     <g transform="translate(15.558281 249.645286)rotate(-90)scale(0.11 -0.11)">
      <use xlink:href="#DejaVuSans-77"/>
      <use x="81.787109" xlink:href="#DejaVuSans-65"/>
      <use x="143.310547" xlink:href="#DejaVuSans-61"/>
      <use x="204.589844" xlink:href="#DejaVuSans-72"/>
     </g>
    </g>
   </g>
   <g id="patch_12">
    <path d="M 28.845937 326.478281 
L 28.845937 145.784948 
" style="fill:none;stroke:#000000;stroke-linecap:square;stroke-linejoin:miter;stroke-width:0.8;"/>
   </g>
   <g id="patch_13">
    <path d="M 28.845937 326.478281 
L 419.445938 326.478281 
" style="fill:none;stroke:#000000;stroke-linecap:square;stroke-linejoin:miter;stroke-width:0.8;"/>
   </g>
   <g id="text_7">
    <!-- Cumulative allocation -->
    <defs>
     <path d="M 64.40625 67.28125 
L 64.40625 56.890625 
Q 59.421875 61.53125 53.78125 63.8125 
Q 48.140625 66.109375 41.796875 66.109375 
Q 29.296875 66.109375 22.65625 58.46875 
Q 16.015625 50.828125 16.015625 36.375 
Q 16.015625 21.96875 22.65625 14.328125 
Q 29.296875 6.6875 41.796875 6.6875 
Q 48.140625 6.6875 53.78125 8.984375 
Q 59.421875 11.28125 64.40625 15.921875 
L 64.40625 5.609375 
Q 59.234375 2.09375 53.4375 0.328125 
Q 47.65625 -1.421875 41.21875 -1.421875 
Q 24.65625 -1.421875 15.125 8.703125 
Q 5.609375 18.84375 5.609375 36.375 
Q 5.609375 53.953125 15.125 64.078125 
Q 24.65625 74.21875 41.21875 74.21875 
Q 47.75 74.21875 53.53125 72.484375 
Q 59.328125 70.75 64.40625 67.28125 
z
" id="DejaVuSans-43"/>
     <path d="M 8.5 21.578125 
L 8.5 54.6875 
L 17.484375 54.6875 
L 17.484375 21.921875 
Q 17.484375 14.15625 20.5 10.265625 
Q 23.53125 6.390625 29.59375 6.390625 
Q 36.859375 6.390625 41.078125 11.03125 
Q 45.3125 15.671875 45.3125 23.6875 
L 45.3125 54.6875 
L 54.296875 54.6875 
L 54.296875 0 
L 45.3125 0 
L 45.3125 8.40625 
Q 42.046875 3.421875 37.71875 1 
Q 33.40625 -1.421875 27.6875 -1.421875 
Q 18.265625 -1.421875 13.375 4.4375 
Q 8.5 10.296875 8.5 21.578125 
z
M 31.109375 56 
z
" id="DejaVuSans-75"/>
     <path d="M 2.984375 54.6875 
L 12.5 54.6875 
L 29.59375 8.796875 
L 46.6875 54.6875 
L 56.203125 54.6875 
L 35.6875 0 
L 23.484375 0 
z
" id="DejaVuSans-76"/>
    </defs>
    <g transform="translate(164.285313 139.784948)scale(0.11 -0.11)">
     <use xlink:href="#DejaVuSans-43"/>
     <use x="69.824219" xlink:href="#DejaVuSans-75"/>
     <use x="133.203125" xlink:href="#DejaVuSans-6d"/>
     <use x="230.615234" xlink:href="#DejaVuSans-75"/>
     <use x="293.994141" xlink:href="#DejaVuSans-6c"/>
     <use x="321.777344" xlink:href="#DejaVuSans-61"/>
     <use x="383.056641" xlink:href="#DejaVuSans-74"/>
     <use x="422.265625" xlink:href="#DejaVuSans-69"/>
     <use x="450.048828" xlink:href="#DejaVuSans-76"/>
     <use x="509.228516" xlink:href="#DejaVuSans-65"/>
     <use x="570.751953" xlink:href="#DejaVuSans-20"/>
     <use x="602.539062" xlink:href="#DejaVuSans-61"/>
     <use x="663.818359" xlink:href="#DejaVuSans-6c"/>
     <use x="691.601562" xlink:href="#DejaVuSans-6c"/>
     <use x="719.384766" xlink:href="#DejaVuSans-6f"/>
     <use x="780.566406" xlink:href="#DejaVuSans-63"/>
     <use x="835.546875" xlink:href="#DejaVuSans-61"/>
     <use x="896.826172" xlink:href="#DejaVuSans-74"/>
     <use x="936.035156" xlink:href="#DejaVuSans-69"/>
     <use x="963.818359" xlink:href="#DejaVuSans-6f"/>
     <use x="1025" xlink:href="#DejaVuSans-6e"/>
    </g>
   </g>
  </g>
 </g>
 <defs>
  <clipPath id="p604e0e35fe">
   <rect height="90.346667" width="173.6" x="28.845937" y="21.558281"/>
  </clipPath>
  <clipPath id="p7bfeafe743">
   <rect height="90.346667" width="173.6" x="245.845937" y="21.558281"/>
  </clipPath>
  <clipPath id="pf388380ca9">
   <rect height="180.693333" width="390.6" x="28.845937" y="145.784948"/>
  </clipPath>
 </defs>
</svg>
